<svg version="1.1" id="Layer_1" xmlns="http://www.w3.org/2000/svg" x="0" y="0" viewBox="0 0 600 600" xml:space="preserve"><style>.st3{fill:#fff}.st5{fill:#d8d8d8}</style><ellipse cx="300" cy="225.5" rx="142" ry="42.94" fill="#a47654"/><ellipse cx="300" cy="225.5" rx="121" ry="36.59" fill="#e1a273" opacity=".5"/><path class="st3" d="M300 204.47c25.62 0 48.52 5.37 59.88 8.57 12.15 3.42 20.41 6.88 25.29 9.46-15.7 9.2-41.68 24.02-85.17 24.02-24.09 0-48.86-2.91-67.98-7.98-21.87-5.8-27.59-12.05-28.01-13.54.45-1.47 6.26-7.55 28.11-13.05 18.9-4.75 43.64-7.48 67.88-7.48m0-8c-53.02 0-104 12.5-104 28.53s50.98 29.53 104 29.53 81.9-21.39 96-29.03c12-6.5-42.98-29.03-96-29.03z"/><path d="M296.5 173c44.38 0 88.66 6.39 121.49 17.55 15.56 5.28 28.2 11.55 36.58 18.12C459.78 212.76 466 219.09 466 226c0 6.88-6.19 13.12-11.39 17.15-8.35 6.47-21 12.62-36.57 17.79C385.38 271.78 341.08 278 296.5 278c-44.65 0-86.52-6.13-117.89-17.26-27.93-9.91-44.61-23.09-44.61-35.24s16.68-25.33 44.61-35.24C209.98 179.13 251.85 173 296.5 173m0-8c-94.16 0-170.5 27.09-170.5 60.5S202.34 286 296.5 286 474 259.41 474 226s-83.34-61-177.5-61z" fill="#fcfcfc"/><path class="st3" d="M352.71 494H246.45c-66.69 0-120.95-54.26-120.95-120.95V225.5c0-2.21 1.79-4 4-4s4 1.79 4 4v147.55c0 62.28 50.67 112.95 112.95 112.95h106.26c61.93 0 112.6-50.38 112.95-112.31l.84-148.21c.01-2.2 1.8-3.98 4-3.98h.02c2.21.01 3.99 1.81 3.98 4.02l-.84 148.21c-.18 32.18-12.85 62.39-35.67 85.08-22.82 22.69-53.1 35.19-85.28 35.19z"/><path class="st5" d="M319 360h-9c-6.6 0-12-5.4-12-12v-8c0-6.6 5.4-12 12-12h9c6.6 0 12 5.4 12 12v8c0 6.6-5.4 12-12 12zM319 416h-9c-6.6 0-12-5.4-12-12v-8c0-6.6 5.4-12 12-12h9c6.6 0 12 5.4 12 12v8c0 6.6-5.4 12-12 12z"/><path class="st3" d="M303 431c-13.75 0-25-11.25-25-25v-67c0-13.75 11.25-25 25-25s25 11.25 25 25v67c0 13.75-11.25 25-25 25z"/></svg>