<?xml version="1.0" encoding="utf-8"?>
<!-- Generator: Adobe Illustrator 25.3.1, SVG Export Plug-In . SVG Version: 6.00 Build 0)  -->
<svg version="1.1" id="Layer_1" xmlns="http://www.w3.org/2000/svg" xmlns:xlink="http://www.w3.org/1999/xlink" x="0px" y="0px"
	 viewBox="0 0 250 150" style="enable-background:new 0 0 250 150;" xml:space="preserve">
<style type="text/css">
	.st0{fill:#FFFFFF;}
</style>
<g>
	<path class="st0" d="M70.1,66.2c0,3.9,0.4,7.2,1.2,9.8c0.8,2.6,2.2,3.9,4.2,3.9c1,0,1.8-0.2,2.3-0.6c0.5-0.4,0.8-0.8,1-1.2
		c0.1-0.5,0.2-1,0.2-1.6s0-1.4,0-2.3v-1.4c0-1.1,0-1.8-0.1-2.2c-0.1-0.8-0.2-1.4-0.5-1.7c-0.3-0.3-0.7-0.5-1.3-0.6
		c-0.6-0.1-1.1-0.1-1.6-0.1c-0.5,0-0.9,0-1.3-0.1v-0.6h18.3v0.6l-1.8,0.1c-0.8,0.1-1.3,0.3-1.6,0.5c-0.3,0.3-0.4,0.8-0.5,1.7
		l-0.1,1.8v4.9l0.1,3.3h-0.6c-0.3-0.7-0.9-1.4-1.8-2c-0.8-0.6-1.8-0.9-2.8-0.9c-0.9,0-2.2,0.5-3.9,1.6c-1.7,1.1-3.9,1.6-6.7,1.6
		c-3.9,0-7.1-1.3-9.8-4c-2.6-2.7-4-6-4-10c0-4.2,1.5-7.6,4.3-10.2c2.9-2.6,6.6-3.8,11.1-3.8c2.4,0,4.8,0.5,7,1.6s3.4,1.6,3.7,1.6
		c0.8,0,1.3-0.3,1.5-0.8s0.5-1.3,0.7-2.3h0.8v12h-0.7c-0.8-3.1-2.1-5.7-3.9-7.8c-1.8-2.1-4.1-3.2-6.9-3.2c-2.2,0-3.9,1.2-5,3.7
		C70.7,60.1,70.1,63,70.1,66.2z"/>
	<path class="st0" d="M93.3,80.4v-0.6l1.1,0c0.8-0.1,1.2-0.2,1.4-0.5s0.2-0.9,0.2-1.8l0-1.7v-8.9l0-1.5c-0.1-0.6-0.1-1-0.2-1.3
		c-0.1-0.3-0.6-0.5-1.4-0.6l-1-0.1v-0.6h10.2v3.1c0.2-0.4,0.6-1.1,1.2-2c0.6-0.9,1.9-1.3,4.1-1.3c1.2,0,2.3,0.4,3.2,1.2
		s1.3,1.8,1.3,3s-0.4,2.1-1.2,2.8s-1.8,1.1-3,1.1c-1,0-1.8-0.3-2.6-1c-0.7-0.7-1.1-1.4-1.1-2.2c0-0.6,0.1-1.2,0.3-1.7
		c0.3-0.5,0.5-1,0.8-1.4c-0.1-0.2-0.3-0.3-0.4-0.3c-0.7,0-1.3,0.4-1.8,1.2c-0.5,0.8-0.8,1.5-0.8,2.2v8.6l0,1.9
		c0,0.7,0.1,1.2,0.3,1.4s0.6,0.4,1.3,0.5l1.2,0.1v0.6L93.3,80.4L93.3,80.4z"/>
	<path class="st0" d="M133.6,78.5c0.6,0,1.1-0.4,1.3-1.1c0.2-0.7,0.4-1.6,0.4-2.6h0.6c0,2.2-0.4,3.6-1.2,4.3
		c-0.8,0.7-1.6,1.1-2.2,1.3c-0.6,0.2-1.5,0.3-2.5,0.3c-1.1,0-2.1-0.3-3-0.8c-0.9-0.6-1.4-1.3-1.6-2.2c-0.4,1-1.1,1.8-2.1,2.3
		c-1,0.5-2.2,0.8-3.8,0.8c-1.7,0-3-0.4-4.1-1.3s-1.6-2.1-1.6-3.6c0-1.2,0.3-2.2,1-3s1.3-1.2,2-1.4s1.7-0.3,3.1-0.4
		c1.4-0.1,2.4-0.3,3.1-0.4c0.7-0.2,1.1-0.3,1.4-0.5c0.3-0.2,0.4-0.5,0.4-0.9l0-3.4c0-1-0.1-1.7-0.4-2.1c-0.3-0.4-0.8-0.6-1.6-0.6
		c-0.5,0-0.9,0.1-1.3,0.3c-0.3,0.2-0.5,0.5-0.5,0.9c0,0.3,0.3,0.6,0.8,1c0.6,0.4,0.8,1,0.8,1.8c0,0.8-0.4,1.5-1.1,2.1
		S119.6,70,118,70c-0.9,0-1.7-0.2-2.3-0.7s-1-1.1-1-1.8c0-1.6,0.9-2.8,2.7-3.7c1.8-0.9,4-1.4,6.5-1.4c2.1,0,4.1,0.4,5.9,1.2
		c1.8,0.8,2.7,2.1,2.7,3.9V76c0,0.8,0.1,1.4,0.2,1.8C132.7,78.3,133,78.5,133.6,78.5z M124.8,77.4v-7.1l-0.1,0
		c-0.2,0.3-0.7,0.6-1.3,0.8c-0.6,0.3-1.1,0.5-1.3,0.8c-0.2,0.2-0.4,0.7-0.6,1.4s-0.2,1.4-0.2,2.2c0,1.1,0.1,2,0.3,2.7s0.6,1,1.2,1
		c0.5,0,0.9-0.2,1.3-0.6C124.4,78.2,124.7,77.8,124.8,77.4z"/>
	<path class="st0" d="M147.2,79.6c1.2,0,2.6-0.9,4.1-2.6s2.7-3.4,3.6-5.1h0.5v8.4h-19.9V80l11.8-16.5l-2.1-0.1
		c-1.3,0-2.7,0.8-4.2,2.4c-1.5,1.6-2.7,3.3-3.6,5h-0.5v-8.1h19V63l-11.8,16.5L147.2,79.6z"/>
	<path class="st0" d="M169.9,80.4h-12.7v-0.6l0.9,0c0.8-0.1,1.2-0.2,1.4-0.5c0.2-0.3,0.2-0.9,0.2-1.8l0-1.7v-8.9l0-1.5
		c-0.1-0.6-0.1-1-0.2-1.3c-0.1-0.3-0.6-0.5-1.4-0.6l-1.1-0.1v-0.6h10.3v13l0,1.7c0,0.9,0.1,1.5,0.2,1.8c0.2,0.3,0.6,0.5,1.4,0.5
		l0.9,0L169.9,80.4L169.9,80.4z M159.7,56.5c0-1,0.4-1.8,1.1-2.5c0.8-0.7,1.6-1,2.7-1c1.1,0,2,0.3,2.7,1c0.8,0.7,1.1,1.5,1.1,2.5
		c0,1-0.4,1.8-1.1,2.5c-0.8,0.7-1.7,1-2.7,1c-1.1,0-1.9-0.3-2.7-1C160.1,58.3,159.7,57.5,159.7,56.5z"/>
	<path class="st0" d="M190.9,74.8c-0.7,1.9-1.9,3.3-3.5,4.4s-3.5,1.6-5.7,1.6c-3.1,0-5.6-0.8-7.6-2.4c-2-1.6-3-3.9-3-6.8
		c0-2.7,1-4.9,3.1-6.6c2.1-1.7,4.5-2.6,7.4-2.6c3,0,5.3,0.8,6.9,2.4c1.6,1.6,2.4,3.6,2.4,5.9h-12c0,0.9,0.1,1.8,0.2,2.7
		s0.4,1.8,0.8,2.7c0.4,0.9,1,1.6,1.7,2.1s1.7,0.8,2.8,0.8c1.6,0,2.9-0.4,3.8-1.3c0.9-0.9,1.6-1.9,2.1-3.2L190.9,74.8z M183.9,69.9
		c0-0.3-0.1-0.6-0.1-1s0-0.8,0-1.4c0-1.5-0.2-2.7-0.6-3.4c-0.4-0.8-1.1-1.2-2-1.2c-0.8,0-1.4,0.4-1.7,1.1c-0.3,0.8-0.6,1.9-0.7,3.5
		l-0.1,2.4L183.9,69.9L183.9,69.9z"/>
	<path class="st0" d="M66,93.9c-1.8,0-3.3-0.5-4.4-1.6c-1.2-1.1-1.7-2.4-1.7-4c0-1.7,0.6-3,1.7-4.1s2.6-1.6,4.4-1.6
		c0.8,0,1.4,0.1,2,0.4l1.7,0.9c0.3,0,0.5-0.1,0.6-0.3c0.1-0.2,0.2-0.5,0.2-0.9h0.3v4.7h-0.3c-0.5-1.2-0.8-2-1-2.5s-0.5-0.8-1-1.2
		s-1-0.6-1.7-0.6c-0.9,0-1.6,0.5-2,1.5c-0.4,1-0.7,2.1-0.7,3.4c0,1.4,0.3,2.6,0.8,3.6s1.3,1.5,2.3,1.5c0.9,0,1.7-0.3,2.3-1
		c0.6-0.7,1-1.5,1.1-2.6l0.3,0.1c-0.2,1.2-0.6,2.2-1.4,3C68.8,93.6,67.6,93.9,66,93.9z"/>
	<path class="st0" d="M80.3,90.2c0,1.1-0.4,1.9-1.3,2.6c-0.8,0.7-1.8,1.1-3,1.1c-1.2,0-2.2-0.3-3-1.1c-0.8-0.7-1.2-1.6-1.2-2.6
		c0-1.1,0.4-1.9,1.2-2.6s1.8-1.1,3-1.1c1.2,0,2.2,0.3,3,1C79.8,88.3,80.3,89.2,80.3,90.2z M77.2,90.2c0-0.1,0-0.4,0-0.8
		c0-0.4,0-0.7,0-0.8c0-0.5-0.1-1-0.3-1.3c-0.2-0.3-0.4-0.5-0.8-0.5c-0.3,0-0.6,0.2-0.8,0.5S75,88.1,75,88.6c0,0.2,0,0.4,0,0.7
		c0,0.3,0,0.6,0,0.9c0,0.1,0,0.4,0,0.9s0,0.7,0,0.8c0,0.5,0.1,1,0.3,1.3s0.4,0.5,0.8,0.5c0.3,0,0.6-0.2,0.8-0.5
		c0.2-0.4,0.3-0.8,0.3-1.3c0-0.2,0-0.4,0-0.7C77.1,90.8,77.1,90.5,77.2,90.2z"/>
	<path class="st0" d="M85.7,84.5c0-0.3,0.1-0.5,0.3-0.7s0.3-0.4,0.3-0.5c0-0.1,0-0.2-0.1-0.3S86,83,85.8,83c-0.4,0-0.6,0.2-0.8,0.6
		c-0.2,0.4-0.2,0.9-0.2,1.5l0,1.6h1.8l-0.3,0.6h-1.5v4.6l0,0.7c0,0.4,0,0.6,0.1,0.7s0.2,0.2,0.5,0.2l0.6,0v0.2h-5.3v-0.2l0.4,0
		c0.3,0,0.5-0.1,0.6-0.2c0.1-0.1,0.1-0.3,0.1-0.7l0-0.7v-4.6h-1.1l0.2-0.6h0.9c0-0.2,0-0.4,0-0.6c0-0.2,0-0.4,0-0.5
		c0-0.7,0.4-1.3,1.3-1.9c0.8-0.6,1.8-0.9,2.9-0.9c0.7,0,1.3,0.1,1.9,0.4s0.8,0.7,0.8,1.3c0,0.4-0.2,0.7-0.5,0.9s-0.7,0.4-1,0.4
		s-0.7-0.1-1-0.3C85.9,85.2,85.7,84.9,85.7,84.5z"/>
	<path class="st0" d="M91.4,84.5c0-0.3,0.1-0.5,0.3-0.7s0.3-0.4,0.3-0.5c0-0.1,0-0.2-0.1-0.3S91.7,83,91.5,83
		c-0.4,0-0.6,0.2-0.8,0.6c-0.2,0.4-0.2,0.9-0.2,1.5l0,1.6h1.8L92,87.3h-1.5v4.6l0,0.7c0,0.4,0,0.6,0.1,0.7s0.2,0.2,0.5,0.2l0.6,0
		v0.2h-5.3v-0.2l0.4,0c0.3,0,0.5-0.1,0.6-0.2c0.1-0.1,0.1-0.3,0.1-0.7l0-0.7v-4.6h-1.1l0.2-0.6h0.9c0-0.2,0-0.4,0-0.6
		c0-0.2,0-0.4,0-0.5c0-0.7,0.4-1.3,1.3-1.9c0.8-0.6,1.8-0.9,2.9-0.9c0.7,0,1.3,0.1,1.9,0.4s0.8,0.7,0.8,1.3c0,0.4-0.2,0.7-0.5,0.9
		s-0.7,0.4-1,0.4s-0.7-0.1-1-0.3C91.6,85.2,91.4,84.9,91.4,84.5z"/>
	<path class="st0" d="M100.2,91.5c-0.3,0.8-0.8,1.3-1.4,1.8s-1.4,0.6-2.3,0.6c-1.2,0-2.2-0.3-3-1s-1.2-1.6-1.2-2.7
		c0-1.1,0.4-1.9,1.2-2.6s1.8-1,3-1c1.2,0,2.1,0.3,2.8,1s1,1.4,1,2.4h-4.8c0,0.4,0,0.7,0.1,1.1c0.1,0.4,0.2,0.7,0.3,1.1
		s0.4,0.6,0.7,0.8c0.3,0.2,0.7,0.3,1.1,0.3c0.6,0,1.2-0.2,1.5-0.5c0.4-0.3,0.7-0.8,0.9-1.3L100.2,91.5z M97.4,89.6
		c0-0.1,0-0.2,0-0.4c0-0.2,0-0.3,0-0.6c0-0.6-0.1-1.1-0.2-1.4c-0.2-0.3-0.4-0.5-0.8-0.5c-0.3,0-0.6,0.2-0.7,0.4
		c-0.1,0.3-0.2,0.8-0.3,1.4l0,0.9L97.4,89.6L97.4,89.6z"/>
	<path class="st0" d="M108.6,91.5c-0.3,0.8-0.8,1.3-1.4,1.8s-1.4,0.6-2.3,0.6c-1.2,0-2.2-0.3-3-1c-0.8-0.7-1.2-1.6-1.2-2.7
		c0-1.1,0.4-1.9,1.2-2.6s1.8-1,3-1c1.2,0,2.1,0.3,2.8,1s1,1.4,1,2.4h-4.8c0,0.4,0,0.7,0.1,1.1c0.1,0.4,0.2,0.7,0.3,1.1
		s0.4,0.6,0.7,0.8c0.3,0.2,0.7,0.3,1.1,0.3c0.6,0,1.2-0.2,1.5-0.5c0.4-0.3,0.7-0.8,0.9-1.3L108.6,91.5z M105.8,89.6
		c0-0.1,0-0.2,0-0.4s0-0.3,0-0.6c0-0.6-0.1-1.1-0.2-1.4c-0.2-0.3-0.4-0.5-0.8-0.5c-0.3,0-0.6,0.2-0.7,0.4c-0.1,0.3-0.2,0.8-0.3,1.4
		l0,0.9L105.8,89.6L105.8,89.6z"/>
	<path class="st0" d="M123.4,89.7c0.1-0.1,0.2-0.2,0.4-0.4c0.2-0.2,0.4-0.5,0.5-0.8s0.3-0.5,0.3-0.6c0-0.1,0.1-0.2,0.1-0.3
		c0-0.2-0.1-0.3-0.2-0.4s-0.3-0.1-0.6-0.1l-0.7,0v-0.2h4v0.2c-0.1,0-0.2,0-0.4,0c-0.1,0-0.4,0-0.7,0.1s-0.7,0.3-1,0.8
		c-0.3,0.5-0.6,0.8-0.9,1.1s-0.5,0.6-0.7,0.8c0.7,0.8,1.2,1.3,1.7,1.7c0.4,0.3,0.9,0.5,1.2,0.5c0.3,0,0.6-0.1,0.8-0.3
		s0.4-0.6,0.4-1.3h0.2c0,1.1-0.4,1.9-1.1,2.5c-0.7,0.6-1.6,0.9-2.7,0.9c-0.7,0-1.3-0.1-1.8-0.4c-0.5-0.2-1.1-0.7-1.6-1.2
		c-0.7,0.6-1.3,1.1-1.8,1.3s-1.2,0.3-1.8,0.3c-1.2,0-2.1-0.3-2.8-1s-1-1.4-1-2.3c0-0.9,0.3-1.6,0.9-2.3c0.6-0.6,1.6-1.1,2.9-1.3
		c-0.2-0.4-0.3-0.7-0.4-0.9c-0.1-0.2-0.1-0.6-0.1-1c0-0.6,0.3-1.2,1-1.7c0.6-0.5,1.6-0.8,2.9-0.8c0.8,0,1.4,0.2,1.8,0.5
		c0.4,0.3,0.6,0.8,0.6,1.3c0,0.4-0.2,0.8-0.5,1.1c-0.3,0.3-0.8,0.6-1.5,0.8c0.4,0.6,0.8,1.2,1.1,1.7
		C122.5,88.6,122.9,89.1,123.4,89.7z M120.7,92.2c-0.5-0.6-1.1-1.3-1.7-2.2c-0.6-0.9-1.2-1.8-1.6-2.6c-0.2,0.1-0.4,0.3-0.5,0.5
		s-0.2,0.6-0.2,0.9c0,1.1,0.3,1.9,0.9,2.6c0.6,0.7,1.3,1,2.1,1c0.3,0,0.5,0,0.7-0.1C120.4,92.3,120.6,92.2,120.7,92.2z M121.9,84.6
		c0-0.5-0.1-0.8-0.3-1.1c-0.2-0.3-0.5-0.4-0.8-0.4c-0.2,0-0.4,0.1-0.6,0.2c-0.2,0.1-0.2,0.3-0.2,0.6c0,0.3,0.1,0.7,0.3,1.1
		c0.2,0.4,0.4,0.8,0.7,1.2c0.3-0.1,0.5-0.3,0.7-0.5C121.8,85.4,121.9,85,121.9,84.6z"/>
	<path class="st0" d="M140.2,93.8l-7.7,0v-0.2h0.5c0.2,0,0.4-0.1,0.6-0.1c0.2,0,0.4-0.1,0.5-0.2c0.1-0.1,0.2-0.3,0.2-0.7l0-0.7v-7.1
		l0-0.7c0-0.3-0.1-0.5-0.2-0.7s-0.3-0.2-0.5-0.2s-0.4-0.1-0.6-0.1c-0.2,0-0.4,0-0.5,0v-0.2l7.2,0c1,0,1.8,0,2.3,0.1s1,0.2,1.4,0.5
		s0.7,0.5,0.9,0.9c0.2,0.3,0.3,0.8,0.3,1.3c0,0.7-0.2,1.2-0.7,1.6c-0.4,0.3-0.9,0.5-1.3,0.6s-1,0.2-1.6,0.2v0.1c0.8,0,1.3,0,1.7,0.1
		s0.8,0.2,1.1,0.3c0.4,0.2,0.7,0.4,1,0.8c0.3,0.4,0.4,0.9,0.4,1.6c0,0.6-0.1,1.1-0.4,1.6s-0.7,0.7-1.2,0.9s-1,0.3-1.7,0.3
		C141.3,93.8,140.7,93.8,140.2,93.8z M139.7,87.9c0.4-0.1,0.7-0.3,0.9-0.7c0.1-0.4,0.2-0.9,0.2-1.6c0-0.5-0.1-1-0.3-1.5
		c-0.2-0.5-0.4-0.7-0.7-0.8c-0.3-0.1-0.6-0.1-0.8-0.1s-0.5,0-0.6,0V88c0.2,0,0.4,0,0.6,0C139.1,88,139.4,87.9,139.7,87.9z
		 M140.2,93.3c0.3-0.1,0.6-0.4,0.7-0.9c0.1-0.5,0.2-1.1,0.2-1.7c0-0.5-0.1-1.1-0.4-1.6c-0.2-0.5-0.5-0.8-0.9-0.8s-0.6-0.1-0.8-0.1
		c-0.2,0-0.3,0-0.4,0h-0.5v5.3h0.2c0.4,0,0.7,0,0.9,0C139.7,93.4,139.9,93.4,140.2,93.3z"/>
	<path class="st0" d="M154.4,93c0.2,0,0.4-0.2,0.5-0.4s0.1-0.7,0.1-1.1h0.2c0,0.9-0.2,1.4-0.5,1.7c-0.3,0.3-0.6,0.5-0.9,0.5
		c-0.3,0.1-0.6,0.1-1,0.1c-0.4,0-0.9-0.1-1.2-0.3c-0.4-0.2-0.6-0.5-0.6-0.9c-0.2,0.4-0.4,0.7-0.8,0.9c-0.4,0.2-0.9,0.3-1.5,0.3
		c-0.7,0-1.2-0.2-1.6-0.5s-0.6-0.8-0.6-1.4c0-0.5,0.1-0.9,0.4-1.2c0.3-0.3,0.5-0.5,0.8-0.6s0.7-0.1,1.2-0.2s1-0.1,1.2-0.2
		s0.5-0.1,0.6-0.2c0.1-0.1,0.2-0.2,0.2-0.4l0-1.4c0-0.4-0.1-0.7-0.2-0.8c-0.1-0.2-0.3-0.2-0.6-0.2c-0.2,0-0.4,0.1-0.5,0.1
		c-0.1,0.1-0.2,0.2-0.2,0.3c0,0.1,0.1,0.2,0.3,0.4s0.3,0.4,0.3,0.7c0,0.3-0.1,0.6-0.4,0.8s-0.8,0.4-1.4,0.4c-0.4,0-0.7-0.1-0.9-0.3
		c-0.3-0.2-0.4-0.4-0.4-0.7c0-0.6,0.4-1.1,1.1-1.5s1.6-0.6,2.6-0.6c0.9,0,1.6,0.2,2.3,0.5c0.7,0.3,1.1,0.8,1.1,1.6V92
		c0,0.3,0,0.6,0.1,0.7C154,92.9,154.1,93,154.4,93z M150.8,92.6v-2.8l-0.1,0c-0.1,0.1-0.3,0.2-0.5,0.3c-0.2,0.1-0.4,0.2-0.5,0.3
		s-0.2,0.3-0.2,0.6c-0.1,0.3-0.1,0.6-0.1,0.9c0,0.4,0,0.8,0.1,1.1c0.1,0.3,0.2,0.4,0.5,0.4c0.2,0,0.4-0.1,0.5-0.2
		C150.7,92.9,150.8,92.8,150.8,92.6z"/>
	<path class="st0" d="M159.2,90.6c0.6-0.5,1.1-1.1,1.6-1.6c0.6-0.6,0.9-0.9,1.1-1.2s0.3-0.4,0.3-0.6c0-0.1,0-0.1-0.1-0.2
		S162.1,87,162,87l-0.5,0v-0.2h3v0.2c-0.1,0-0.2,0-0.3,0c-0.1,0-0.2,0-0.4,0.1c-0.2,0-0.3,0.1-0.4,0.2c-0.1,0.1-0.3,0.2-0.5,0.4
		c-0.2,0.2-0.4,0.4-0.6,0.5c-0.2,0.2-0.3,0.3-0.4,0.4c0.5,0.8,1,1.6,1.6,2.4c0.5,0.8,0.9,1.4,1.2,1.8s0.4,0.6,0.6,0.7
		c0.1,0.1,0.3,0.2,0.5,0.2l0.4,0v0.2h-5.3v-0.2l0.3,0c0.3,0,0.4-0.1,0.4-0.2c0-0.1-0.1-0.3-0.2-0.5c-0.1-0.2-0.4-0.6-0.6-1
		s-0.6-0.8-0.8-1.2l-0.3,0.3v1.1l0,0.7c0,0.4,0,0.6,0.1,0.8s0.2,0.2,0.5,0.2l0.3,0v0.2h-5v-0.2l0.4,0c0.3,0,0.5-0.1,0.6-0.2
		s0.1-0.3,0.1-0.7l0-0.7v-7.4l0-0.6c0-0.3,0-0.4-0.1-0.6c-0.1-0.1-0.3-0.2-0.6-0.2l-0.6,0v-0.2h4.3v6.7L159.2,90.6z"/>
	<path class="st0" d="M173.2,91.5c-0.3,0.8-0.8,1.3-1.4,1.8c-0.6,0.4-1.4,0.6-2.3,0.6c-1.2,0-2.2-0.3-3-1c-0.8-0.7-1.2-1.6-1.2-2.7
		c0-1.1,0.4-1.9,1.2-2.6c0.8-0.7,1.8-1,3-1c1.2,0,2.1,0.3,2.8,1s1,1.4,1,2.4h-4.8c0,0.4,0,0.7,0.1,1.1c0.1,0.4,0.2,0.7,0.3,1.1
		s0.4,0.6,0.7,0.8s0.7,0.3,1.1,0.3c0.6,0,1.1-0.2,1.5-0.5c0.4-0.3,0.7-0.8,0.9-1.3L173.2,91.5z M170.4,89.6c0-0.1,0-0.2,0-0.4
		c0-0.2,0-0.3,0-0.6c0-0.6-0.1-1.1-0.2-1.4c-0.2-0.3-0.4-0.5-0.8-0.5c-0.3,0-0.6,0.2-0.7,0.4c-0.1,0.3-0.2,0.8-0.3,1.4l0,0.9
		L170.4,89.6L170.4,89.6z"/>
	<path class="st0" d="M173.5,93.8v-0.2l0.4,0c0.3,0,0.5-0.1,0.6-0.2s0.1-0.3,0.1-0.7l0-0.7v-3.6l0-0.6c0-0.2-0.1-0.4-0.1-0.5
		s-0.2-0.2-0.6-0.2l-0.4,0v-0.2h4.1v1.2c0.1-0.2,0.2-0.4,0.5-0.8c0.2-0.4,0.8-0.5,1.6-0.5c0.5,0,0.9,0.2,1.3,0.5s0.5,0.7,0.5,1.2
		c0,0.5-0.2,0.8-0.5,1.1s-0.7,0.4-1.2,0.4c-0.4,0-0.7-0.1-1-0.4s-0.4-0.6-0.4-0.9c0-0.2,0.1-0.5,0.1-0.7c0.1-0.2,0.2-0.4,0.3-0.6
		c-0.1-0.1-0.1-0.1-0.2-0.1c-0.3,0-0.5,0.2-0.7,0.5s-0.3,0.6-0.3,0.9V92l0,0.8c0,0.3,0,0.5,0.1,0.6s0.2,0.2,0.5,0.2l0.5,0v0.2
		L173.5,93.8L173.5,93.8z"/>
	<path class="st0" d="M182.5,87.7c-0.1-0.2-0.2-0.4-0.3-0.5c-0.1-0.1-0.2-0.2-0.3-0.2l-0.6,0v-0.2h5.1v0.2h-0.2c-0.1,0-0.2,0-0.3,0
		c-0.1,0-0.2,0.1-0.2,0.3c0,0.1,0,0.2,0.1,0.3c0,0.1,0.1,0.2,0.1,0.4l1.2,2.8c0.1-0.2,0.3-0.6,0.5-1.2s0.4-1,0.6-1.4
		s0.2-0.7,0.2-0.8c0-0.1,0-0.2-0.1-0.3c-0.1-0.1-0.2-0.1-0.4-0.1l-0.5,0v-0.2h2.6v0.2c-0.1,0-0.1,0-0.2,0c-0.1,0-0.2,0-0.4,0.1
		c-0.2,0-0.3,0.1-0.5,0.3c-0.1,0.2-0.4,0.6-0.7,1.5c-0.3,0.8-0.7,1.7-1.1,2.6c-0.4,0.9-0.8,1.9-1.3,2.9c-0.5,1-0.9,1.7-1.4,2.2
		c-0.4,0.5-1,0.8-1.7,0.8c-0.4,0-0.8-0.1-1.1-0.4c-0.4-0.3-0.5-0.6-0.5-1c0-0.4,0.1-0.7,0.4-1c0.3-0.3,0.6-0.4,1.1-0.4
		c0.4,0,0.8,0.1,1.1,0.4s0.4,0.5,0.4,0.9s-0.1,0.6-0.3,0.8s-0.3,0.3-0.3,0.4c0.1,0,0.2,0,0.3,0c0.2-0.1,0.4-0.3,0.7-0.6
		s0.4-0.6,0.6-0.9c0.2-0.3,0.3-0.7,0.5-1.1c-0.2-0.5-0.5-1.2-0.9-1.9c-0.3-0.8-0.7-1.6-1.1-2.5C183,88.9,182.7,88.2,182.5,87.7z"/>
</g>
</svg>
