<?xml version="1.0" encoding="utf-8"?>
<!-- Generator: Adobe Illustrator 23.0.1, SVG Export Plug-In . SVG Version: 6.00 Build 0)  -->
<svg version="1.1" id="Layer_1" xmlns="http://www.w3.org/2000/svg" xmlns:xlink="http://www.w3.org/1999/xlink" x="0px" y="0px"
	 viewBox="0 0 250 150" style="enable-background:new 0 0 250 150;" xml:space="preserve">
<g>
	<path d="M70.11,66.24c0,3.92,0.4,7.19,1.21,9.78c0.81,2.6,2.22,3.89,4.23,3.89c0.99,0,1.75-0.19,2.27-0.56
		c0.52-0.37,0.85-0.79,0.98-1.25c0.13-0.46,0.21-1,0.24-1.62c0.03-0.62,0.04-1.39,0.04-2.31v-1.45c0-1.07-0.04-1.79-0.12-2.16
		c-0.08-0.82-0.25-1.38-0.53-1.68c-0.27-0.3-0.7-0.48-1.27-0.56c-0.57-0.07-1.1-0.12-1.57-0.13c-0.47-0.01-0.9-0.03-1.29-0.06v-0.6
		h18.32v0.6l-1.8,0.11c-0.81,0.07-1.35,0.26-1.62,0.54c-0.27,0.29-0.45,0.85-0.53,1.7l-0.08,1.75v4.88l0.08,3.35h-0.59
		c-0.34-0.72-0.93-1.38-1.78-1.97c-0.85-0.6-1.78-0.89-2.8-0.89c-0.91,0-2.22,0.53-3.91,1.6c-1.7,1.07-3.94,1.6-6.73,1.6
		c-3.86,0-7.11-1.33-9.75-3.99c-2.64-2.66-3.95-6-3.95-10.02c0-4.22,1.45-7.61,4.35-10.17c2.9-2.56,6.59-3.84,11.08-3.84
		c2.45,0,4.78,0.52,6.97,1.56c2.19,1.04,3.42,1.59,3.68,1.64c0.76,0,1.27-0.27,1.53-0.8c0.26-0.53,0.51-1.3,0.74-2.29h0.78v12.04
		h-0.67c-0.78-3.08-2.08-5.69-3.9-7.82c-1.81-2.14-4.13-3.2-6.95-3.2c-2.25,0-3.92,1.24-5.01,3.71
		C70.66,60.08,70.11,62.96,70.11,66.24z"/>
	<path d="M93.33,80.36v-0.6l1.06-0.04c0.76-0.07,1.21-0.25,1.37-0.52c0.16-0.27,0.24-0.87,0.24-1.79l0.04-1.71v-8.91l-0.04-1.53
		c-0.05-0.6-0.13-1.04-0.24-1.34c-0.1-0.3-0.57-0.48-1.41-0.56l-1.02-0.07v-0.6h10.18v3.13c0.18-0.45,0.56-1.12,1.15-2.01
		c0.59-0.89,1.95-1.34,4.09-1.34c1.25,0,2.32,0.42,3.19,1.25c0.87,0.83,1.31,1.82,1.31,2.96c0,1.14-0.41,2.09-1.23,2.85
		c-0.82,0.76-1.83,1.14-3.03,1.14c-0.99,0-1.85-0.33-2.56-0.99c-0.72-0.66-1.08-1.41-1.08-2.25c0-0.62,0.12-1.19,0.35-1.71
		c0.26-0.47,0.52-0.96,0.78-1.45c-0.13-0.17-0.26-0.26-0.39-0.26c-0.67,0-1.26,0.39-1.76,1.15c-0.5,0.77-0.75,1.49-0.75,2.16v8.61
		l0.04,1.86c0,0.7,0.09,1.17,0.27,1.42c0.18,0.25,0.63,0.41,1.35,0.48l1.16,0.07v0.6H93.33z"/>
	<path d="M133.56,78.53c0.62,0,1.05-0.37,1.29-1.1c0.25-0.74,0.37-1.62,0.37-2.64h0.55c0,2.19-0.41,3.64-1.23,4.34
		c-0.82,0.7-1.56,1.14-2.21,1.33c-0.65,0.19-1.49,0.28-2.51,0.28c-1.12,0-2.12-0.27-2.99-0.82c-0.88-0.55-1.4-1.28-1.59-2.2
		c-0.42,1.01-1.12,1.76-2.09,2.27c-0.98,0.5-2.25,0.76-3.82,0.76c-1.67,0-3.03-0.44-4.07-1.31s-1.57-2.08-1.57-3.62
		c0-1.24,0.33-2.25,0.98-3.01c0.65-0.76,1.32-1.23,2-1.4c0.68-0.17,1.72-0.32,3.13-0.45c1.41-0.12,2.45-0.27,3.11-0.43
		c0.67-0.16,1.14-0.34,1.43-0.52c0.29-0.19,0.43-0.5,0.43-0.95l-0.04-3.4c0-0.97-0.13-1.67-0.39-2.09c-0.26-0.42-0.8-0.64-1.63-0.64
		c-0.52,0-0.95,0.11-1.3,0.34c-0.35,0.22-0.52,0.51-0.52,0.86c0,0.27,0.28,0.62,0.83,1.03c0.56,0.41,0.83,1.03,0.83,1.85
		c0,0.77-0.36,1.46-1.08,2.06c-0.72,0.6-1.89,0.9-3.51,0.9c-0.89,0-1.67-0.23-2.34-0.69c-0.67-0.46-1-1.08-1-1.85
		c0-1.55,0.91-2.78,2.73-3.71c1.82-0.92,3.98-1.39,6.49-1.39c2.12,0,4.07,0.42,5.85,1.25s2.67,2.13,2.67,3.87v8.57
		c0,0.8,0.08,1.41,0.23,1.83C132.72,78.31,133.04,78.53,133.56,78.53z M124.77,77.41v-7.12l-0.12-0.04c-0.23,0.3-0.66,0.58-1.3,0.84
		c-0.63,0.26-1.07,0.52-1.32,0.76c-0.25,0.25-0.44,0.73-0.58,1.44c-0.14,0.71-0.21,1.43-0.21,2.18c0,1.12,0.09,2.01,0.27,2.68
		c0.18,0.67,0.59,1.01,1.24,1.01c0.49,0,0.92-0.19,1.3-0.56C124.42,78.23,124.66,77.84,124.77,77.41z"/>
	<path d="M147.16,79.61c1.25,0,2.64-0.86,4.15-2.57c1.51-1.71,2.7-3.42,3.56-5.1h0.51v8.42h-19.85v-0.34l11.82-16.54l-2.11-0.07
		c-1.28,0-2.68,0.81-4.21,2.42c-1.53,1.61-2.73,3.27-3.62,4.96h-0.51V62.7h19.03v0.34l-11.78,16.54L147.16,79.61z"/>
	<path d="M169.94,80.36h-12.73v-0.6l0.94-0.04c0.76-0.07,1.22-0.25,1.37-0.52c0.16-0.27,0.24-0.87,0.24-1.79l0.04-1.71v-8.91
		l-0.04-1.53c-0.05-0.6-0.13-1.04-0.23-1.34c-0.1-0.3-0.57-0.48-1.41-0.56l-1.06-0.07v-0.6h10.3v13l0.04,1.71
		c0,0.89,0.08,1.48,0.24,1.77c0.16,0.29,0.61,0.47,1.37,0.54l0.94,0.04V80.36z M159.69,56.47c0-0.97,0.37-1.79,1.12-2.48
		c0.75-0.68,1.65-1.02,2.7-1.02c1.08,0,1.99,0.33,2.73,0.99c0.75,0.66,1.12,1.5,1.12,2.51c0,0.99-0.37,1.83-1.12,2.51
		c-0.75,0.68-1.66,1.02-2.73,1.02c-1.05,0-1.95-0.34-2.7-1.02C160.06,58.31,159.69,57.47,159.69,56.47z"/>
	<path d="M190.85,74.77c-0.73,1.86-1.91,3.32-3.53,4.38s-3.53,1.58-5.73,1.58c-3.09,0-5.62-0.81-7.61-2.44
		c-1.99-1.63-2.98-3.88-2.98-6.76c0-2.68,1.03-4.89,3.08-6.61c2.05-1.73,4.52-2.59,7.39-2.59c3.01,0,5.31,0.81,6.9,2.42
		c1.6,1.61,2.39,3.59,2.39,5.92h-12.02c0,0.89,0.07,1.81,0.21,2.74c0.14,0.93,0.42,1.83,0.82,2.7c0.4,0.87,0.97,1.57,1.71,2.1
		c0.74,0.53,1.67,0.8,2.78,0.8c1.6,0,2.87-0.43,3.8-1.29c0.93-0.86,1.65-1.93,2.15-3.22L190.85,74.77z M183.92,69.92
		c-0.03-0.27-0.05-0.6-0.06-0.97c-0.01-0.37-0.02-0.84-0.02-1.42c0-1.51-0.19-2.66-0.58-3.45c-0.39-0.78-1.06-1.17-2.02-1.17
		c-0.83,0-1.41,0.38-1.73,1.14c-0.32,0.76-0.55,1.92-0.68,3.48l-0.08,2.38H183.92z"/>
	<path d="M66.01,93.95c-1.8,0-3.27-0.53-4.42-1.59c-1.15-1.06-1.73-2.4-1.73-4.02c0-1.66,0.57-3.01,1.71-4.05
		c1.14-1.04,2.62-1.56,4.42-1.56c0.77,0,1.44,0.12,2,0.37l1.66,0.89c0.31,0,0.52-0.1,0.63-0.31c0.1-0.2,0.18-0.49,0.22-0.87h0.31
		v4.71h-0.27c-0.46-1.21-0.79-2.03-0.98-2.46c-0.19-0.43-0.51-0.84-0.96-1.24c-0.45-0.4-1.02-0.6-1.72-0.6
		c-0.91,0-1.58,0.49-2.02,1.46c-0.44,0.97-0.66,2.11-0.66,3.41c0,1.4,0.26,2.62,0.79,3.64s1.3,1.54,2.33,1.54
		c0.95,0,1.71-0.33,2.29-0.98c0.57-0.66,0.96-1.51,1.14-2.56l0.27,0.05c-0.15,1.19-0.62,2.18-1.43,2.97
		C68.8,93.56,67.6,93.95,66.01,93.95z"/>
	<path d="M80.26,90.24c0,1.05-0.42,1.93-1.26,2.63c-0.84,0.7-1.83,1.05-2.97,1.05c-1.2,0-2.21-0.35-3.01-1.05
		c-0.81-0.7-1.21-1.58-1.21-2.63c0-1.05,0.41-1.93,1.23-2.63c0.82-0.7,1.82-1.05,3-1.05c1.16,0,2.15,0.35,2.98,1.04
		C79.85,88.3,80.26,89.18,80.26,90.24z M77.15,90.23c0-0.14-0.01-0.42-0.03-0.83c-0.02-0.42-0.03-0.67-0.03-0.75
		c0-0.54-0.09-0.98-0.26-1.33c-0.17-0.35-0.44-0.52-0.81-0.52c-0.33,0-0.59,0.18-0.77,0.54c-0.18,0.36-0.27,0.8-0.27,1.3
		c0,0.19-0.01,0.42-0.02,0.69c-0.02,0.27-0.03,0.57-0.04,0.89c0,0.14,0.01,0.42,0.03,0.86s0.03,0.68,0.03,0.75
		c0,0.54,0.09,0.98,0.26,1.33s0.44,0.52,0.79,0.52c0.34,0,0.61-0.18,0.78-0.54c0.18-0.36,0.27-0.79,0.27-1.31
		c0-0.2,0.01-0.43,0.02-0.71C77.11,90.85,77.13,90.55,77.15,90.23z"/>
	<path d="M85.73,84.53c0-0.26,0.1-0.49,0.31-0.7c0.21-0.21,0.31-0.36,0.31-0.46c0-0.12-0.04-0.21-0.13-0.27
		c-0.09-0.06-0.22-0.09-0.4-0.09c-0.36,0-0.62,0.2-0.78,0.6c-0.16,0.4-0.24,0.91-0.24,1.53l-0.03,1.56h1.77l-0.27,0.57h-1.5v4.63
		l0.01,0.69c0,0.36,0.03,0.59,0.09,0.7s0.24,0.18,0.54,0.22l0.56,0.02v0.24h-5.26v-0.24l0.38-0.02c0.3-0.03,0.49-0.1,0.55-0.21
		c0.06-0.11,0.09-0.35,0.09-0.72l0.02-0.69v-4.63h-1.14l0.25-0.57h0.89c0-0.2,0.01-0.41,0.02-0.63c0.02-0.22,0.02-0.39,0.02-0.48
		c0-0.7,0.43-1.35,1.28-1.94c0.85-0.59,1.81-0.89,2.89-0.89c0.71,0,1.34,0.14,1.88,0.42c0.54,0.28,0.81,0.7,0.81,1.26
		c0,0.36-0.15,0.66-0.46,0.9c-0.31,0.24-0.65,0.36-1.03,0.36c-0.38,0-0.71-0.11-1-0.32C85.88,85.17,85.73,84.89,85.73,84.53z"/>
	<path d="M91.45,84.53c0-0.26,0.1-0.49,0.31-0.7c0.21-0.21,0.31-0.36,0.31-0.46c0-0.12-0.04-0.21-0.13-0.27
		c-0.09-0.06-0.22-0.09-0.4-0.09c-0.36,0-0.62,0.2-0.78,0.6c-0.16,0.4-0.24,0.91-0.24,1.53l-0.03,1.56h1.77l-0.27,0.57h-1.5v4.63
		l0.02,0.69c0,0.36,0.03,0.59,0.09,0.7c0.06,0.11,0.24,0.18,0.54,0.22l0.56,0.02v0.24h-5.26v-0.24l0.38-0.02
		c0.3-0.03,0.49-0.1,0.55-0.21c0.06-0.11,0.09-0.35,0.09-0.72l0.02-0.69v-4.63h-1.14l0.25-0.57h0.89c0-0.2,0.01-0.41,0.02-0.63
		c0.02-0.22,0.02-0.39,0.02-0.48c0-0.7,0.43-1.35,1.28-1.94c0.85-0.59,1.81-0.89,2.89-0.89c0.71,0,1.34,0.14,1.88,0.42
		c0.54,0.28,0.81,0.7,0.81,1.26c0,0.36-0.15,0.66-0.46,0.9c-0.31,0.24-0.65,0.36-1.03,0.36c-0.38,0-0.71-0.11-1-0.32
		C91.59,85.17,91.45,84.89,91.45,84.53z"/>
	<path d="M100.18,91.54c-0.29,0.75-0.76,1.33-1.41,1.75c-0.65,0.42-1.41,0.63-2.29,0.63c-1.23,0-2.25-0.33-3.04-0.98
		c-0.79-0.65-1.19-1.55-1.19-2.71c0-1.07,0.41-1.95,1.23-2.64c0.82-0.69,1.81-1.04,2.96-1.04c1.2,0,2.12,0.32,2.76,0.97
		c0.64,0.65,0.96,1.44,0.96,2.37h-4.81c0,0.36,0.03,0.72,0.09,1.1c0.06,0.37,0.17,0.73,0.33,1.08c0.16,0.35,0.39,0.63,0.68,0.84
		c0.3,0.21,0.67,0.32,1.11,0.32c0.64,0,1.15-0.17,1.52-0.51c0.37-0.34,0.66-0.77,0.86-1.29L100.18,91.54z M97.41,89.6
		c-0.01-0.11-0.02-0.24-0.02-0.39c-0.01-0.15-0.01-0.34-0.01-0.57c0-0.61-0.08-1.07-0.23-1.38c-0.16-0.31-0.43-0.47-0.81-0.47
		c-0.33,0-0.56,0.15-0.69,0.45c-0.13,0.3-0.22,0.77-0.27,1.39l-0.03,0.95H97.41z"/>
	<path d="M108.56,91.54c-0.29,0.75-0.76,1.33-1.41,1.75c-0.65,0.42-1.41,0.63-2.29,0.63c-1.23,0-2.25-0.33-3.04-0.98
		c-0.8-0.65-1.19-1.55-1.19-2.71c0-1.07,0.41-1.95,1.23-2.64s1.81-1.04,2.96-1.04c1.2,0,2.12,0.32,2.76,0.97
		c0.64,0.65,0.96,1.44,0.96,2.37h-4.81c0,0.36,0.03,0.72,0.09,1.1c0.06,0.37,0.17,0.73,0.33,1.08c0.16,0.35,0.39,0.63,0.68,0.84
		c0.3,0.21,0.67,0.32,1.11,0.32c0.64,0,1.15-0.17,1.52-0.51c0.37-0.34,0.66-0.77,0.86-1.29L108.56,91.54z M105.79,89.6
		c-0.01-0.11-0.02-0.24-0.02-0.39c0-0.15-0.01-0.34-0.01-0.57c0-0.61-0.08-1.07-0.23-1.38c-0.16-0.31-0.43-0.47-0.81-0.47
		c-0.33,0-0.56,0.15-0.69,0.45c-0.13,0.3-0.22,0.77-0.27,1.39l-0.03,0.95H105.79z"/>
	<path d="M123.36,89.72c0.07-0.08,0.21-0.23,0.4-0.45c0.19-0.22,0.37-0.47,0.54-0.75c0.17-0.28,0.27-0.48,0.31-0.62
		c0.04-0.13,0.06-0.24,0.06-0.32c0-0.18-0.07-0.3-0.21-0.36c-0.14-0.06-0.33-0.1-0.57-0.12l-0.74-0.04v-0.24h3.99v0.24
		c-0.12,0.01-0.24,0.02-0.37,0.02c-0.13,0.01-0.36,0.04-0.69,0.11c-0.33,0.07-0.66,0.34-0.99,0.8c-0.33,0.46-0.62,0.84-0.86,1.13
		c-0.24,0.29-0.47,0.56-0.69,0.81c0.68,0.8,1.25,1.35,1.7,1.66c0.45,0.31,0.86,0.47,1.21,0.47c0.3,0,0.57-0.11,0.81-0.32
		c0.24-0.21,0.39-0.63,0.44-1.26h0.25c0,1.08-0.36,1.93-1.09,2.54c-0.73,0.61-1.62,0.92-2.67,0.92c-0.67,0-1.27-0.12-1.79-0.37
		c-0.53-0.25-1.05-0.66-1.57-1.22c-0.67,0.64-1.28,1.06-1.83,1.27c-0.55,0.21-1.15,0.32-1.8,0.32c-1.17,0-2.1-0.32-2.79-0.97
		c-0.69-0.65-1.03-1.43-1.03-2.34c0-0.87,0.31-1.63,0.93-2.26c0.62-0.63,1.58-1.05,2.87-1.26c-0.19-0.36-0.32-0.65-0.41-0.89
		c-0.08-0.23-0.13-0.56-0.13-0.99c0-0.62,0.32-1.19,0.96-1.71c0.64-0.53,1.59-0.79,2.87-0.79c0.79,0,1.4,0.16,1.82,0.49
		c0.42,0.33,0.63,0.75,0.63,1.27c0,0.42-0.17,0.79-0.5,1.1c-0.33,0.32-0.82,0.57-1.47,0.75c0.38,0.6,0.75,1.17,1.13,1.71
		C122.47,88.6,122.89,89.15,123.36,89.72z M120.65,92.16c-0.54-0.59-1.12-1.31-1.74-2.18c-0.62-0.87-1.15-1.75-1.61-2.63
		c-0.2,0.08-0.36,0.26-0.49,0.54c-0.13,0.28-0.2,0.6-0.2,0.95c0,1.05,0.31,1.92,0.92,2.59c0.61,0.68,1.3,1.01,2.08,1.01
		c0.31,0,0.54-0.03,0.69-0.09C120.44,92.3,120.56,92.23,120.65,92.16z M121.89,84.59c0-0.48-0.1-0.85-0.3-1.13
		c-0.2-0.28-0.48-0.42-0.85-0.42c-0.22,0-0.41,0.07-0.56,0.21c-0.16,0.14-0.24,0.33-0.24,0.57c0,0.31,0.09,0.67,0.26,1.09
		c0.17,0.42,0.39,0.83,0.65,1.25c0.28-0.12,0.52-0.3,0.73-0.53C121.79,85.39,121.89,85.05,121.89,84.59z"/>
	<path d="M140.23,93.77l-7.66-0.02v-0.24h0.49c0.22-0.03,0.43-0.06,0.64-0.08c0.21-0.02,0.37-0.1,0.49-0.22
		c0.12-0.12,0.2-0.34,0.23-0.66l0.03-0.68v-7.05l-0.03-0.69c-0.03-0.32-0.11-0.54-0.24-0.67c-0.13-0.13-0.3-0.21-0.52-0.24
		c-0.22-0.03-0.43-0.05-0.61-0.05c-0.18,0-0.35-0.01-0.49-0.02v-0.24l7.23-0.02c0.98,0,1.75,0.04,2.3,0.1s1.02,0.22,1.39,0.46
		c0.37,0.24,0.66,0.53,0.87,0.89c0.21,0.35,0.31,0.77,0.31,1.26c0,0.73-0.22,1.25-0.67,1.56c-0.44,0.32-0.89,0.53-1.33,0.63
		c-0.44,0.1-0.99,0.16-1.64,0.16v0.12c0.76,0,1.33,0.03,1.71,0.08c0.38,0.05,0.76,0.16,1.14,0.3c0.38,0.15,0.72,0.43,1.01,0.84
		c0.29,0.41,0.44,0.94,0.44,1.58c0,0.62-0.15,1.14-0.45,1.56c-0.3,0.42-0.69,0.73-1.16,0.93c-0.47,0.2-1.04,0.32-1.72,0.35
		C141.32,93.76,140.73,93.77,140.23,93.77z M139.66,87.87c0.44-0.08,0.73-0.32,0.88-0.73c0.15-0.41,0.22-0.92,0.22-1.55
		c0-0.51-0.1-1-0.29-1.47c-0.19-0.47-0.43-0.74-0.72-0.81c-0.29-0.07-0.55-0.11-0.8-0.12c-0.25-0.01-0.46-0.02-0.65-0.03v4.81
		c0.2,0,0.4,0,0.6-0.01C139.11,87.96,139.36,87.93,139.66,87.87z M140.24,93.34c0.34-0.08,0.59-0.39,0.74-0.94
		c0.15-0.54,0.23-1.11,0.23-1.71c0-0.53-0.12-1.06-0.35-1.57c-0.23-0.51-0.52-0.78-0.85-0.82c-0.33-0.04-0.59-0.06-0.77-0.07
		c-0.18,0-0.32-0.01-0.42-0.01h-0.52v5.26h0.19c0.38,0,0.69-0.01,0.94-0.02C139.68,93.45,139.95,93.41,140.24,93.34z"/>
	<path d="M154.36,93.04c0.25,0,0.42-0.15,0.52-0.44c0.1-0.29,0.15-0.65,0.15-1.06h0.22c0,0.88-0.16,1.45-0.49,1.73
		c-0.33,0.28-0.62,0.46-0.88,0.53c-0.26,0.07-0.59,0.11-1,0.11c-0.45,0-0.85-0.11-1.2-0.33c-0.35-0.22-0.56-0.51-0.63-0.88
		c-0.17,0.4-0.45,0.71-0.84,0.91c-0.39,0.2-0.9,0.3-1.53,0.3c-0.67,0-1.21-0.17-1.63-0.52c-0.42-0.35-0.63-0.83-0.63-1.45
		c0-0.5,0.13-0.9,0.39-1.2c0.26-0.3,0.53-0.49,0.8-0.56c0.27-0.07,0.69-0.13,1.25-0.18s0.98-0.11,1.25-0.17
		c0.27-0.06,0.46-0.13,0.57-0.21c0.12-0.07,0.17-0.2,0.17-0.38l-0.01-1.36c0-0.39-0.05-0.67-0.16-0.84
		c-0.1-0.17-0.32-0.25-0.65-0.25c-0.21,0-0.38,0.05-0.52,0.13c-0.14,0.09-0.21,0.21-0.21,0.34c0,0.11,0.11,0.25,0.33,0.41
		c0.22,0.16,0.33,0.41,0.33,0.74c0,0.31-0.14,0.58-0.43,0.82c-0.29,0.24-0.76,0.36-1.41,0.36c-0.36,0-0.67-0.09-0.94-0.28
		c-0.27-0.18-0.4-0.43-0.4-0.74c0-0.62,0.36-1.11,1.09-1.48c0.73-0.37,1.59-0.55,2.6-0.55c0.85,0,1.63,0.17,2.34,0.5
		c0.71,0.33,1.07,0.85,1.07,1.55v3.43c0,0.32,0.03,0.56,0.09,0.73C154.02,92.95,154.15,93.04,154.36,93.04z M150.84,92.59v-2.85
		l-0.05-0.02c-0.09,0.12-0.27,0.23-0.52,0.34c-0.25,0.1-0.43,0.21-0.53,0.31c-0.1,0.1-0.18,0.29-0.23,0.57
		c-0.06,0.28-0.09,0.57-0.09,0.87c0,0.45,0.04,0.81,0.11,1.07c0.07,0.27,0.24,0.4,0.5,0.4c0.2,0,0.37-0.07,0.52-0.22
		C150.71,92.92,150.8,92.76,150.84,92.59z"/>
	<path d="M159.24,90.59c0.55-0.54,1.1-1.08,1.65-1.62c0.55-0.55,0.93-0.94,1.14-1.19c0.21-0.25,0.32-0.44,0.32-0.57
		c0-0.08-0.03-0.14-0.1-0.17c-0.07-0.03-0.16-0.06-0.29-0.07l-0.53-0.03v-0.24h2.96v0.24c-0.11,0-0.21,0-0.31,0.01
		c-0.1,0.01-0.24,0.02-0.41,0.06c-0.17,0.03-0.32,0.08-0.43,0.15c-0.12,0.06-0.29,0.19-0.51,0.38c-0.23,0.19-0.42,0.36-0.58,0.52
		c-0.16,0.16-0.31,0.31-0.45,0.45c0.51,0.79,1.03,1.6,1.57,2.42c0.53,0.82,0.92,1.4,1.17,1.75c0.25,0.35,0.43,0.57,0.55,0.66
		c0.12,0.09,0.28,0.15,0.49,0.18l0.38,0.02v0.24h-5.3v-0.24l0.31-0.02c0.27,0,0.4-0.08,0.4-0.24c0-0.1-0.07-0.26-0.21-0.49
		c-0.14-0.23-0.35-0.56-0.64-1c-0.29-0.44-0.57-0.85-0.84-1.25l-0.3,0.3v1.07l0.02,0.68c0,0.39,0.03,0.64,0.09,0.75
		c0.06,0.11,0.23,0.17,0.52,0.17l0.3,0.02v0.24h-4.96v-0.24l0.36-0.02c0.3-0.03,0.49-0.1,0.55-0.21c0.06-0.11,0.09-0.35,0.09-0.72
		l0.02-0.69v-7.36l-0.02-0.61c0-0.27-0.04-0.45-0.13-0.56c-0.09-0.1-0.28-0.17-0.57-0.2l-0.59-0.03v-0.24h4.34v6.7L159.24,90.59z"/>
	<path d="M173.22,91.54c-0.29,0.75-0.76,1.33-1.41,1.75c-0.65,0.42-1.41,0.63-2.29,0.63c-1.23,0-2.25-0.33-3.04-0.98
		c-0.8-0.65-1.19-1.55-1.19-2.71c0-1.07,0.41-1.95,1.23-2.64c0.82-0.69,1.81-1.04,2.96-1.04c1.2,0,2.12,0.32,2.76,0.97
		c0.64,0.65,0.96,1.44,0.96,2.37h-4.81c0,0.36,0.03,0.72,0.09,1.1c0.06,0.37,0.17,0.73,0.33,1.08c0.16,0.35,0.39,0.63,0.68,0.84
		c0.29,0.21,0.67,0.32,1.11,0.32c0.64,0,1.15-0.17,1.52-0.51c0.37-0.34,0.66-0.77,0.86-1.29L173.22,91.54z M170.45,89.6
		c-0.01-0.11-0.02-0.24-0.02-0.39c-0.01-0.15-0.01-0.34-0.01-0.57c0-0.61-0.08-1.07-0.23-1.38c-0.16-0.31-0.43-0.47-0.81-0.47
		c-0.33,0-0.56,0.15-0.69,0.45c-0.13,0.3-0.22,0.77-0.27,1.39l-0.03,0.95H170.45z"/>
	<path d="M173.52,93.77v-0.24l0.42-0.02c0.3-0.03,0.49-0.1,0.55-0.21c0.06-0.11,0.09-0.35,0.09-0.72l0.02-0.69v-3.56l-0.02-0.61
		c-0.02-0.24-0.05-0.42-0.09-0.54c-0.04-0.12-0.23-0.19-0.56-0.22l-0.41-0.03v-0.24h4.07v1.25c0.07-0.18,0.23-0.45,0.46-0.8
		c0.24-0.36,0.78-0.54,1.64-0.54c0.5,0,0.93,0.17,1.28,0.5c0.35,0.33,0.52,0.73,0.52,1.18c0,0.46-0.16,0.84-0.49,1.14
		c-0.33,0.3-0.73,0.45-1.21,0.45c-0.4,0-0.74-0.13-1.03-0.39s-0.43-0.56-0.43-0.9c0-0.25,0.05-0.48,0.14-0.69
		c0.1-0.19,0.21-0.38,0.31-0.58c-0.05-0.07-0.1-0.1-0.16-0.1c-0.27,0-0.5,0.15-0.7,0.46c-0.2,0.31-0.3,0.6-0.3,0.86V92l0.02,0.75
		c0,0.28,0.04,0.47,0.11,0.57c0.07,0.1,0.25,0.16,0.54,0.19l0.46,0.03v0.24H173.52z"/>
	<path d="M182.48,87.72c-0.13-0.25-0.23-0.42-0.31-0.53c-0.08-0.1-0.19-0.17-0.33-0.2l-0.61-0.04v-0.24h5.12v0.24h-0.23
		c-0.08,0-0.19,0.01-0.32,0.04c-0.13,0.02-0.2,0.13-0.2,0.31c0,0.08,0.02,0.18,0.06,0.31c0.04,0.12,0.08,0.25,0.13,0.36l1.22,2.77
		c0.1-0.24,0.27-0.63,0.5-1.17c0.23-0.54,0.41-1,0.55-1.38c0.14-0.38,0.2-0.65,0.2-0.82c0-0.13-0.02-0.22-0.07-0.27
		c-0.05-0.05-0.17-0.09-0.38-0.12l-0.5-0.03v-0.24h2.63v0.24c-0.06,0-0.13,0-0.2,0.01c-0.07,0.01-0.19,0.02-0.38,0.05
		c-0.18,0.03-0.34,0.12-0.46,0.27c-0.13,0.15-0.36,0.64-0.7,1.46c-0.34,0.83-0.71,1.7-1.1,2.62c-0.39,0.92-0.83,1.88-1.32,2.88
		c-0.49,0.99-0.94,1.74-1.37,2.24c-0.42,0.5-0.99,0.75-1.7,0.75c-0.42,0-0.8-0.13-1.15-0.4c-0.35-0.27-0.53-0.62-0.53-1.04
		c0-0.4,0.14-0.74,0.42-1.01c0.28-0.28,0.64-0.42,1.08-0.42c0.45,0,0.8,0.12,1.05,0.37c0.25,0.25,0.38,0.54,0.38,0.88
		c0,0.34-0.1,0.61-0.3,0.82c-0.2,0.21-0.3,0.33-0.3,0.37c0.09-0.01,0.19-0.02,0.3-0.03c0.23-0.1,0.45-0.29,0.66-0.57
		c0.21-0.28,0.4-0.57,0.57-0.86c0.17-0.3,0.34-0.65,0.53-1.06c-0.23-0.52-0.51-1.16-0.85-1.92c-0.34-0.76-0.71-1.6-1.13-2.51
		C183.04,88.92,182.72,88.22,182.48,87.72z"/>
</g>
</svg>
