<?xml version="1.0" encoding="utf-8"?>
<!-- Generator: Adobe Illustrator 23.0.1, SVG Export Plug-In . SVG Version: 6.00 Build 0)  -->
<svg version="1.1" id="Layer_1" xmlns="http://www.w3.org/2000/svg" xmlns:xlink="http://www.w3.org/1999/xlink" x="0px" y="0px"
	 viewBox="0 0 200 200" style="enable-background:new 0 0 200 200;" xml:space="preserve">
<path d="M159.98,92.75c-4.75-37.96-21.54-56-34.78-64.44C110.75,19.11,97.55,19,97,19c-0.14,0-0.28,0.01-0.41,0.04
	C63.71,25.94,48.7,46.81,41.9,63.1c-7.33,17.57-6.92,33.3-6.9,33.92c0.53,42.7,17.82,63.53,32.24,73.5
	c15.68,10.83,31.05,11.46,31.7,11.48c0.02,0,0.04,0,0.07,0c0.04,0,0.07,0,0.11,0c20.37-1.12,36.06-8.39,46.64-21.61
	C166.69,134.2,160.26,94.35,159.98,92.75z M98.99,178c-1.18-0.06-15.47-1.02-29.64-10.88C49.89,153.58,39.4,129.32,39,96.94
	c0-0.15-0.41-15.51,6.6-32.29c9.02-21.61,25.56-35.39,49.16-41.06c1.53,1.56,14.74,15.61,14.62,34.06
	c-0.08,11.96-5.72,23.33-16.77,33.8c-9.08,8.6-13.36,18.58-12.72,29.64c1.43,24.69,26.74,47.43,35.22,54.38
	C110.14,176.82,104.77,177.67,98.99,178z M142.61,157.9c-5.91,7.38-13.58,12.75-22.92,16.11c-4.26-3.34-34.35-27.77-35.81-53.16
	c-0.57-9.83,3.29-18.75,11.48-26.5c11.87-11.25,17.94-23.59,18.02-36.68c0.11-16.32-9.05-29.14-13.56-34.45
	c4.44,0.52,13.57,2.31,23.23,8.47c17.96,11.45,29.36,32.73,32.98,61.65C156.09,93.73,162.43,133.13,142.61,157.9z"/>
</svg>
